<svg width="969" height="433" viewBox="0 0 969 433" fill="none" xmlns="http://www.w3.org/2000/svg">
<path d="M759.5 5.00074H96.5C72.3333 6.83407 21 17.7007 9 46.5007C23.6667 40.5007 55.2 30.3007 64 37.5007C49.3333 40.5007 18.9 50.0007 14.5 64.0007C10.1 78.0007 9 93.1674 9 99.0007C16.3333 89.5007 34.3 70.7007 47.5 71.5007C42.8333 76.3341 32.8 88.6007 30 99.0007C32.5 96.8341 39.5 93.8007 47.5 99.0007C57.5 105.501 96.5 83.5007 96.5 162.501V480.001H963C966 338.167 960.9 49.5007 916.5 29.5007C861 4.50074 830.5 5.00074 759.5 5.00074Z" fill="#FFDD85" stroke="black" stroke-width="9"/>
</svg>
