<svg width="68" height="54" viewBox="0 0 68 54" fill="none" xmlns="http://www.w3.org/2000/svg">
<path d="M34.0097 12.3026L55.4896 0.885052L40.1417 15.6485L39.6804 16.0922L40.3145 16.0053L66.1323 12.4664L49.9329 21.9933L49.4721 22.2644L49.9947 22.3769L66.2938 25.8854L48.1029 31.2827L47.7567 31.3855L48.0187 31.6339L56.0186 39.2194L40.3318 35.7044L39.9955 35.629L40.0849 35.9619L43.5637 48.9251L34.0592 39.4405L33.8044 39.1862L33.7106 39.5338L30.0346 53.1572L26.7541 39.5392L26.6456 39.0887L26.3804 39.4688L16.9018 53.0551L20.3814 35.9494L20.4582 35.5721L20.1002 35.714L1.0547 43.2669L16.6338 29.6907L16.9447 29.4198L16.5423 29.33L0.957559 25.8533L16.5423 22.3765L16.9167 22.293L16.6429 22.0243L6.96274 12.5213L20.1238 16.0003L20.5 16.0997L20.3744 15.7314L16.9019 5.5459L26.431 12.2887L26.6135 12.4179L26.7296 12.2267L33.7034 0.744902V12.1185V12.4654L34.0097 12.3026Z" fill="#FFBB0A" stroke="black" stroke-width="0.416988"/>
<path d="M24.4979 32.6406L22.612 25.4087L20.8582 25.8906L20.5585 24.5911L27.0401 23.3048L27.1471 24.1651L25.3933 24.6471L25.878 32.2747L24.4979 32.6406ZM30.0387 31.7111L28.7318 31.7367L29.6732 22.8569L32.7897 22.5234L35.8555 30.5249L34.7411 30.9111L33.5019 28.9453L30.1598 29.8023L30.0387 31.7111ZM33.1066 28.3176L30.609 24.3498L30.5071 24.3672L30.2223 28.782L33.1066 28.3176ZM38.4941 30.2595L36.3715 22.1763C36.6205 22.0465 36.9373 21.9052 37.3222 21.7523C37.7141 21.5895 38.1471 21.4371 38.6212 21.2953C39.0954 21.1534 39.5788 21.0406 40.0716 20.9568C40.5473 20.8758 41.0183 20.8438 41.4845 20.8606C41.9591 20.876 42.3937 20.9638 42.7881 21.124C43.019 21.5568 43.1699 21.9813 43.2407 22.3976C43.3578 23.0857 43.2608 23.7229 42.9496 24.3091C42.6456 24.8853 42.1961 25.4032 41.6011 25.8628C41.0048 26.3139 40.3267 26.6959 39.567 27.0087L39.7468 29.9153L38.4941 30.2595ZM39.5088 26.127C40.033 25.7144 40.4068 25.2399 40.6303 24.7036C40.8523 24.1588 40.9236 23.6528 40.8441 23.1856C40.7935 22.8882 40.6786 22.6237 40.4993 22.3919C40.327 22.1502 40.0913 21.9718 39.7919 21.8566C39.707 21.8711 39.615 21.8955 39.5159 21.9298C39.4254 21.9627 39.3355 21.9998 39.2464 22.0412L39.5088 26.127Z" fill="#0F0D0D"/>
</svg>
